<svg xmlns="http://www.w3.org/2000/svg" xml:space="preserve" width="128" height="128" viewBox="0 0 28 28"><path fill="#FFE577" d="M21.325 5.931c2.125 2.286 3.872 16.087-.835 16.868-4.582.76-15.647 2.627-15.748-3.858-.101-6.485-1.533-12.616 4.432-13.789 4.18-.822 9.982-1.554 12.151.779z"/><path d="M8.703 22.782a2.29 2.29 0 0 1-1.118-.294l-.536-.299a.5.5 0 1 1 .487-.873l.536.299c.404.225.886.222 1.288-.015.4-.235.64-.653.64-1.118V9.5a.5.5 0 0 1 1 0v10.981c0 .823-.424 1.563-1.134 1.98a2.27 2.27 0 0 1-1.163.321z"/><path d="M14.002 25.999c-.273 0-.548-.071-.791-.214l-2.465-1.438a.5.5 0 0 1 .504-.864l2.465 1.438a.56.56 0 0 0 .573 0l8.922-5.206a.597.597 0 0 0 .29-.511V8.793a.596.596 0 0 0-.292-.512l-8.919-5.204a.563.563 0 0 0-.572 0L4.788 8.282a.59.59 0 0 0-.288.51v10.412c0 .211.11.405.289.51l2.757 1.608a.5.5 0 0 1-.504.864l-2.757-1.608a1.593 1.593 0 0 1-.785-1.374V8.793a1.591 1.591 0 0 1 .784-1.374l8.926-5.204a1.57 1.57 0 0 1 1.582-.002l8.921 5.205c.486.285.787.811.787 1.375v10.413a1.602 1.602 0 0 1-.784 1.372l-8.924 5.207a1.558 1.558 0 0 1-.79.214z"/><path d="M16.5 19c-2.176 0-4.5-.723-4.5-2.75a.5.5 0 0 1 1 0c0 1.701 3.142 1.75 3.5 1.75 1.915 0 3.5-.132 3.5-1.75 0-.822-.831-1.101-2.872-1.585l-.748-.18c-.23-.058-.477-.111-.729-.167C14.024 13.961 12 13.516 12 11.75 12 9.723 14.324 9 16.5 9s4.5.723 4.5 2.75a.5.5 0 0 1-1 0c0-1.701-3.142-1.75-3.5-1.75s-3.5.049-3.5 1.75c0 .891 1.242 1.235 2.865 1.592.262.058.516.113.755.173l.738.178c1.954.462 3.642.863 3.642 2.557C21 19 18.072 19 16.5 19z"/></svg>